PathFileType	4	(X/Y/Z)	/Users/itak/Documents/Research/Walk-IL/dataset/trc/00040_00004.trc
DataRate	CameraRate	NumFrames	NumMarkers	Units	OrigDataRate	OrigDataStartFrame	OrigNumFrames
100.000000	100.000000	4	54	mm	100.000000	426	487
Frame#	Time	RPSI			LPSI			L3			STRN			T10			C7			CLAV			RBAK			LBAK			LSHO			LUPA			LAEL			LAOL			LWTS			LWPS			LFRA			LIFD			LHPS			LHTS			RSHO			RUPA			RAEL			RAOL			RWTS			RWPS			RFRA			RIFD			RHTS			RHPS			RBHD			LFHD			RFHD			LBHD			LHIP			RHIP			RASI			LASI			LKNE			LTHI			LANK			LTIP			LTOE			LMT1			LMT5			LHEE			RKNE			RTHI			RANK			RTIP			RTOE			RMT1			RMT5			RHEE			*53			
		X1	Y1	Z1	X2	Y2	Z2	X3	Y3	Z3	X4	Y4	Z4	X5	Y5	Z5	X6	Y6	Z6	X7	Y7	Z7	X8	Y8	Z8	X9	Y9	Z9	X10	Y10	Z10	X11	Y11	Z11	X12	Y12	Z12	X13	Y13	Z13	X14	Y14	Z14	X15	Y15	Z15	X16	Y16	Z16	X17	Y17	Z17	X18	Y18	Z18	X19	Y19	Z19	X20	Y20	Z20	X21	Y21	Z21	X22	Y22	Z22	X23	Y23	Z23	X24	Y24	Z24	X25	Y25	Z25	X26	Y26	Z26	X27	Y27	Z27	X28	Y28	Z28	X29	Y29	Z29	X30	Y30	Z30	X31	Y31	Z31	X32	Y32	Z32	X33	Y33	Z33	X34	Y34	Z34	X35	Y35	Z35	X36	Y36	Z36	X37	Y37	Z37	X38	Y38	Z38	X39	Y39	Z39	X40	Y40	Z40	X41	Y41	Z41	X42	Y42	Z42	X43	Y43	Z43	X44	Y44	Z44	X45	Y45	Z45	X46	Y46	Z46	X47	Y47	Z47	X48	Y48	Z48	X49	Y49	Z49	X50	Y50	Z50	X51	Y51	Z51	X52	Y52	Z52	X53	Y53	Z53	X54	Y54	Z54	

427	4.26	28.67151069641113	1075.524536132812	887.5079956054688	189.3821868896484	1066.360717773438	853.0537109375	117.530876159668	1125.916748046875	860.5867309570312	147.4560394287109	1330.861450195312	1070.69091796875	119.087776184082	1265.275268554688	824.5734252929688	141.3273468017578	1535.262817382812	854.3124389648438	148.0631408691406	1454.028076171875	1020.228393554688	53.69757461547852	1396.182495117188	819.7737426757812	236.1708526611328	1491.198120117188	831.4398803710938	318.6630554199219	1504.607788085938	926.2890014648438	391.4949645996094	1375.599853515625	897.050537109375	413.59521484375	1157.526000976562	908.572265625	318.2401123046875	1143.012084960938	863.2626342773438	363.2081909179688	915.0059204101562	1023.352905273438	398.0393981933594	893.1886596679688	944.4593505859375	418.9690246582031	1042.9716796875	930.0054321289062	342.0176391601562	733.7555541992188	1065.74951171875	398.9529724121094	806.7742919921875	985.5875244140625	376.1104431152344	823.1099243164062	1050.975830078125	-28.0880241394043	1527.416015625	947.259033203125	-100.5533752441406	1457.8173828125	943.91650390625	-133.2360076904297	1188.755004882812	928.595947265625	-37.73743057250977	1159.4345703125	921.6510620117188	-90.21145629882812	941.414794921875	1076.337524414062	-161.4330902099609	920.5872192382812	1020.560485839844	-148.4379577636719	1113.625854492188	948.6434326171875	-71.93477630615234	758.5704345703125	1111.061645507812	-99.59145355224609	836.1392211914062	1121.84228515625	-155.2616119384766	824.244140625	1072.57373046875	214.0470886230469	1724.171752929688	905.0944213867188	74.99613952636719	1743.653442382812	1071.910400390625	172.4451446533203	1747.813354492188	1080.065063476562	70.33248901367188	1715.629150390625	899.3683471679688	314.9639892578125	964.65576171875	930.427978515625	-46.66889190673828	961.6354370117188	1021.579650878906	44.48718643188477	1002.501098632812	1106.5947265625	272.8478393554688	1015.82080078125	1056.173706054688	281.352783203125	523.47509765625	1014.111267089844	312.1158752441406	657.7352905273438	974.08984375	277.1552734375	40.43952178955078	919.2362670898438	293.03369140625	288.05712890625	936.9076538085938	214.6029052734375	38.34870147705078	1139.81640625	199.6061859130859	48.62298202514648	1080.41162109375	299.7997741699219	38.27638626098633	1042.590942382812	224.1463470458984	46.33948516845703	850.6380615234375	13.86813354492188	526.267333984375	1033.45263671875	-35.63068008422852	794.1847534179688	1047.867431640625	27.22701454162598	44.29518890380859	941.355712890625	14.68452262878418	403.4625244140625	1014.340942382812	117.7898864746094	45.71638107299805	1157.187377929688	134.3498382568359	48.93375778198242	1089.200073242188	37.236572265625	42.42871475219727	1091.307983398438	58.43731689453125	44.87746810913086	877.7837524414062	nan	nan	nan	
428	4.27	30.30365753173828	1075.594482421875	888.6658935546875	191.1580352783203	1066.351196289062	854.8548583984375	119.3156661987305	1125.7109375	862.1492919921875	148.2439270019531	1331.074340820312	1071.725830078125	120.9451065063477	1264.901123046875	825.7632446289062	142.9241485595703	1534.974731445312	854.8124389648438	149.021484375	1454.105834960938	1020.957824707031	55.55408096313477	1395.734375	820.304931640625	237.8800964355469	1490.878784179688	832.4649658203125	319.9772338867188	1504.64111328125	927.6016235351562	393.0132446289062	1375.61962890625	899.0032348632812	415.2559204101562	1157.566284179688	911.2274780273438	320.0965576171875	1142.932373046875	865.464599609375	364.3703918457031	915.0758666992188	1025.941528320312	399.6436157226562	893.2409057617188	947.2484741210938	420.55126953125	1043.05712890625	932.8348999023438	343.0559692382812	733.7789306640625	1068.260009765625	400.3973083496094	806.815673828125	988.3900756835938	377.1784057617188	823.1661987304688	1053.654296875	-26.88526916503906	1527.2783203125	947.055419921875	-99.23538970947266	1457.563720703125	943.4757690429688	-131.2439422607422	1188.514770507812	928.1001586914062	-35.61980819702148	1159.3984375	921.7427368164062	-89.51756286621094	940.0830688476562	1074.431274414062	-160.3363342285156	919.8900146484375	1017.932739257812	-146.5326995849609	1113.445068359375	947.6973876953125	-71.81481170654297	756.7630004882812	1107.428588867188	-99.29920196533203	834.3604125976562	1118.849609375	-154.6607360839844	823.05029296875	1069.055908203125	215.2520751953125	1724.019897460938	905.1321411132812	76.26760864257812	1743.973388671875	1071.931640625	173.6770782470703	1748.081176757812	1080.060424804688	71.53424072265625	1715.555053710938	899.4498291015625	316.3506774902344	964.628662109375	932.6546630859375	-45.35927963256836	961.7212524414062	1022.323974609375	45.22484970092773	1002.690185546875	1107.964965820312	273.83251953125	1015.799987792969	1058.279296875	282.2538452148438	522.916259765625	1013.452575683594	313.0662841796875	657.5294799804688	974.5090942382812	277.2445068359375	40.38739395141602	919.254150390625	293.4424133300781	287.9524230957031	936.3289794921875	214.6036224365234	38.36507797241211	1139.807739257812	199.6491546630859	48.64162445068359	1080.417114257812	299.8413391113281	38.2456169128418	1042.578491210938	224.2352294921875	46.24067306518555	850.6124267578125	14.64138603210449	526.3367309570312	1034.522583007812	-34.85475921630859	794.2598876953125	1048.733154296875	27.28052520751953	44.39659881591797	941.3634643554688	15.42923736572266	403.4986877441406	1015.190002441406	117.6735992431641	45.84232330322266	1157.265991210938	134.3578643798828	48.97323608398438	1089.28515625	37.22397232055664	42.46491241455078	1091.283813476562	58.5196647644043	44.99695587158203	877.7675170898438	nan	nan	nan	
429	4.28	31.94143295288086	1075.634155273438	889.7299194335938	192.9470062255859	1066.302124023438	856.5955810546875	121.1030807495117	1125.474487304688	863.6170043945312	149.01904296875	1331.227172851562	1072.73193359375	122.7926940917969	1264.503662109375	826.939697265625	144.4782257080078	1534.66845703125	855.3167114257812	149.9319610595703	1454.148071289062	1021.676696777344	57.36622619628906	1395.284301757812	820.8313598632812	239.5467529296875	1490.54638671875	833.4702758789062	321.263916015625	1504.628173828125	928.8787231445312	394.4875183105469	1375.599853515625	900.8906860351562	416.8782958984375	1157.570678710938	913.7744140625	321.925048828125	1142.801635742188	867.56689453125	365.5148620605469	915.137939453125	1028.479125976562	401.2328796386719	893.2614135742188	949.9851684570312	422.1246948242188	1043.107666015625	935.5629272460938	344.1128845214844	733.822265625	1070.796020507812	401.8447875976562	806.8516235351562	991.1774291992188	378.2558288574219	823.2412719726562	1056.312744140625	-25.71081733703613	1527.110107421875	946.879638671875	-97.94691467285156	1457.28515625	943.0737915039062	-129.3231201171875	1188.251342773438	927.6365356445312	-33.578857421875	1159.336791992188	921.8153686523438	-88.78704071044922	938.74560546875	1072.521240234375	-159.2398681640625	919.1878051757812	1015.364318847656	-144.6747589111328	1113.235473632812	946.798583984375	-71.63028717041016	754.9640502929688	1103.75146484375	-98.95432281494141	832.6115112304688	1115.844482421875	-154.0128631591797	821.8582763671875	1065.581665039062	216.4304809570312	1723.828369140625	905.14453125	77.51483917236328	1744.276000976562	1071.924926757812	174.8887023925781	1748.343139648438	1080.028442382812	72.71417999267578	1715.442504882812	899.5116577148438	317.7174987792969	964.5392456054688	934.8661499023438	-44.10488510131836	961.8355102539062	1022.984802246094	45.90382766723633	1002.866455078125	1109.277099609375	274.7586975097656	1015.725646972656	1060.334716796875	283.0644836425781	522.3023681640625	1012.796875	313.9560852050781	657.2781372070312	974.9193725585938	277.3241271972656	40.34044647216797	919.2698364257812	293.8297119140625	287.8399047851562	935.739501953125	214.6045837402344	38.38493728637695	1139.797485351562	199.6834259033203	48.65844345092773	1080.417358398438	299.8675842285156	38.22126007080078	1042.56689453125	224.3274993896484	46.13988876342773	850.5875854492188	15.30623340606689	526.3717041015625	1035.55810546875	-34.20426559448242	794.345458984375	1049.474731445312	27.32501029968262	44.48238372802734	941.3707885742188	16.12580871582031	403.5180358886719	1016.025329589844	117.5929412841797	45.91643905639648	1157.346435546875	134.3697052001953	48.96673202514648	1089.361206054688	37.22287368774414	42.49786376953125	1091.277709960938	58.59477615356445	45.10858917236328	877.7440795898438	nan	nan	nan	
430	4.29	33.56745147705078	1075.64111328125	890.7119140625	194.7357482910156	1066.2099609375	858.2769775390625	122.8778228759766	1125.204711914062	864.988525390625	149.7843017578125	1331.3193359375	1073.705810546875	124.6293334960938	1264.088623046875	828.0956420898438	145.9937591552734	1534.344848632812	855.828369140625	150.7977294921875	1454.152099609375	1022.386535644531	59.1364631652832	1394.834106445312	821.3426513671875	241.1719207763672	1490.203247070312	834.45947265625	322.5226135253906	1504.568115234375	930.1273193359375	395.9194641113281	1375.537841796875	902.7197265625	418.4594421386719	1157.536010742188	916.2211303710938	323.7248840332031	1142.617065429688	869.57568359375	366.6521606445312	915.1842041015625	1030.962280273438	402.8016052246094	893.2465209960938	952.6683959960938	423.6853637695312	1043.119018554688	938.1941528320312	345.188232421875	733.8779907226562	1073.349487304688	403.2927856445312	806.878662109375	993.9451293945312	379.3425598144531	823.3276977539062	1058.9462890625	-24.56444358825684	1526.911010742188	946.7315063476562	-96.68890380859375	1456.977294921875	942.7068481445312	-127.4772338867188	1187.9580078125	927.1990966796875	-31.61622047424316	1159.240478515625	921.8632202148438	-88.03176116943359	937.4075927734375	1070.61376953125	-158.1399536132812	918.4810791015625	1012.871948242188	-142.8668975830078	1112.989501953125	945.9456176757812	-71.37488555908203	753.1851806640625	1100.062866210938	-98.56059265136719	830.9110107421875	1112.845703125	-153.3177185058594	820.6749877929688	1062.17626953125	217.5843963623047	1723.593505859375	905.1453247070312	78.72576904296875	1744.55859375	1071.894897460938	176.07666015625	1748.59814453125	1079.979614257812	73.87204742431641	1715.2900390625	899.5610961914062	319.0540771484375	964.39208984375	937.0513305664062	-42.92221450805664	962.002197265625	1023.615661621094	46.54272079467773	1003.028381347656	1110.528076171875	275.6407470703125	1015.599914550781	1062.341064453125	283.7669372558594	521.6604614257812	1012.148132324219	314.7766418457031	656.9881591796875	975.3245849609375	277.4012756347656	40.29376602172852	919.2855834960938	294.1963806152344	287.7205200195312	935.1480102539062	214.6087799072266	38.40883636474609	1139.784423828125	199.7106170654297	48.6754150390625	1080.412841796875	299.8846130371094	38.20255661010742	1042.555541992188	224.4237823486328	46.03750991821289	850.5639038085938	15.87334251403809	526.3745727539062	1036.530395507812	-33.63558959960938	794.4343872070312	1050.122924804688	27.36257743835449	44.55681228637695	941.3753662109375	16.77511024475098	403.5224914550781	1016.825073242188	117.5464477539062	45.93275451660156	1157.426635742188	134.3826141357422	48.91147232055664	1089.4248046875	37.23279571533203	42.52664947509766	1091.287353515625	58.66583633422852	45.21018981933594	877.7172241210938	nan	nan	nan	
